<svg xmlns="http://www.w3.org/2000/svg" xmlns:xlink="http://www.w3.org/1999/xlink" width="105.445" height="83.63" viewBox="0 0 105.445 83.63">
  <defs>
    <radialGradient id="radial-gradient" cx="0.5" cy="0.5" r="0.5" gradientUnits="objectBoundingBox">
      <stop offset="0" stop-color="#26f9d6"/>
      <stop offset="0.996" stop-color="#00dfff"/>
      <stop offset="1" stop-color="#00c9ff"/>
    </radialGradient>
  </defs>
  <g id="Group_97" data-name="Group 97" transform="translate(-53.384 -187.708)">
    <path id="path1071" d="M-3267.339,493.142c-.619.321-1.2.723-1.823,1.027-1.906.988-3.882,1.819-5.841,2.687-.468.208-1.215.271-1.271.943a22.108,22.108,0,0,1-1.424,5.308,23.31,23.31,0,0,0,8.09-3.746c.372-.257.744-.514,1.094-.8.265-.824.329-1.7.539-2.54.2-.964.428-1.917.637-2.877Zm-42-17.006a31.867,31.867,0,0,0-3.708.363,13.787,13.787,0,0,0,.146,1.656c.155,1.134.156,2.267.3,3.4,2.613-.274,2.391-.281,2.991-.309.017-.5.059-1.033.121-1.547.027-.672.05-1.343.076-2.015.032-.1,0-.4.017-.581a5.939,5.939,0,0,0,.04-.748c0-.074.008-.149.017-.222Zm.4.139c-.134,1.093-.083,2.2-.153,3.3-.022.547-.05,1.1-.059,1.641,2.781,1.184,1.626.784,3.253,1.5.29-.9.537-1.932.75-2.854q-.222-1.078-.488-2.146c-1.078-.527-2.214-.927-3.3-1.437Zm-4.645.434c-.566.372-1.026.9-1.574,1.3a3.3,3.3,0,0,0-.4.4s.146.683.211.886a3.766,3.766,0,0,1,.126.461c.254,1.073.478,2.154.76,3.22.476-.45,1.049-.772,1.512-1.238-.043-.964-.241-1.909-.357-2.866a18.932,18.932,0,0,1-.275-2.162Zm4.01,4.99c-1.228.047-.152.027-2.95.251.1,1.044.359,2.839.454,3.773,1.713,0,1.168-.006,2.423-.006.066-1.066,0-2.425.055-3.491,0-.176.008-.351.017-.526Zm.4,0c0,1.8-.065,4.061-.065,4.061s.452.11.673.186c.66.2,1.316.416,1.985.584.376-2.34.055-.08.573-3.446-.683-.389-1.43-.632-2.138-.964-.34-.139-.673-.309-1.026-.42Zm-3.712.487c-.488.442-1.05.851-1.462,1.264.134.758.275,1.645.381,2.258.051.3.155.752.182,1.034,1.253-.943.442-.342,1.245-.9-.027-.408-.095-.919-.114-1.3-.076-.8-.15-1.625-.233-2.358Zm3.192,3.848-.3.032c-.168.018-.707.028-1.2.022l-.891-.012.02.343c.011.189.029.528.04.753.12,1.8.073,3.606.07,5.015.061.454-.258,1.661-.3.891a.11.11,0,0,0,.007-.04c.007-.308-.01-.683,0-.907a55.977,55.977,0,0,0-.213-5.8.89.89,0,0,0-.182.147,2.428,2.428,0,0,1-.332.254c-.1.059-.316.217-.485.351l-.309.244c.059,1.17.132,2.516.132,3.411-.049.744.008.821-.021,1.328-.011.147-.04.884-.062,1.639-.005.167-.009.2-.013.354-.01-.023-.019,0-.019.052s.007.061.015.054c-.013.38-.024.718-.032.884v-.024c-.01-.04-.018-.007-.018.072s.007.088.013.075c0,.018-.005.121-.005.132v.016c-.006-.005-.011,0-.013.036a.085.085,0,0,0,.008.05c-.069.939-.1,1.556-.132,3.318-.025,1.149-.036,2.408-.025,2.8.017.615.012.719-.045.786-2.1,1.777-7.247.519-8.924,2.061-.121.136-1.46,4.206-1.464,4.449a.652.652,0,0,0,.06.286,1.048,1.048,0,0,1,.092.2c.109.212.093.324.43.5h0a1.639,1.639,0,0,0,.747.08c1.351.024.6-.023,1.325.005a1.458,1.458,0,0,1,1.118.344c.293.177.856.574,1.255.881a36.064,36.064,0,0,0,3.143,2.178,14.614,14.614,0,0,1,1.69,1.307l.4.351-.144.093c-.264.17-1.9,1.015-2.46,1.272a73.026,73.026,0,0,1-11.54,4,50.075,50.075,0,0,1-12.344,1.521,18.347,18.347,0,0,1-5.02-.272,25.861,25.861,0,0,1-3.756-.93,5.373,5.373,0,0,1-2.41-1.522,2.8,2.8,0,0,1-1-2.044l-.02-.42.15-.255a32.338,32.338,0,0,1,1.891-2.672,40.046,40.046,0,0,1,6.147-6.4,25.85,25.85,0,0,1,2.3-1.905,64.544,64.544,0,0,1,7.266-4.789c4.1-2.822,7.356-3.018,11.344-2.965h.231c.167-.822.074-.294.3-1.27a33.059,33.059,0,0,1,1.245-3.869c.148-.375.188-.518.153-.541l-.013,0a6.967,6.967,0,0,0-4.1-.285,29.223,29.223,0,0,0-6.461,2.121,50,50,0,0,0-8.027,4.774c-5.932,4.183-8.83,5.784-13.082,13.672a20.392,20.392,0,0,0-1.448,3.8,29.512,29.512,0,0,0-.982,3.393,7.663,7.663,0,0,0-.024,2.289,5.822,5.822,0,0,0,1.454,2.675c1.208,1.339,2.52,2.008,5.207,2.648a23.348,23.348,0,0,0,4.134.65.217.217,0,0,0-.054,0c-.049.01-.018.019.067.019s.108-.005.1-.012c.389.023,1.733.016,1.691-.01h0v0l.1.005c.014.016.031.032.047.032s.013-.012.005-.029c.442.036,2.8.031,3.783-.014a43.9,43.9,0,0,0,6.554-.758,49.81,49.81,0,0,0,7.179-1.786c2.01-.664,4.619-1.566,5.6-1.948a35.485,35.485,0,0,0,4.265-1.9,18.393,18.393,0,0,0,3.344-2.129,7.7,7.7,0,0,0,1.36-1.39c.056-.1.442-1.207.855-2.458l.753-2.274V512.7a1.325,1.325,0,0,0-.121-.666,6.033,6.033,0,0,0-1.437-1.956,18.123,18.123,0,0,0-2.068-1.882,1.65,1.65,0,0,1-.288-.255c.009-.009.285-.09.614-.18a10.85,10.85,0,0,0,2.8-1.194,3.63,3.63,0,0,0,1.282-1.513c.175-.4,1.523-4.495,1.647-5a8.353,8.353,0,0,0,.2-2.651c-.015-.732-.043-1.59-.062-1.9.131-6.89.087-4.079.333-8.47.035-.095.019-.1-1.312-.5-.635-.19-1.216-.365-1.291-.389s-.138-.043-.14-.043c-.018,2.338-.268,4.867-.281,6.531a1.2,1.2,0,0,1-.017.274c-.018.09-.151.194-.165-.072-.012-2.118.074-4.573.1-6.786Zm56.385,11.937v.008a63.7,63.7,0,0,0-5.659,4.044c-2.617,1.955-5.2,3.992-7.88,5.837a8.071,8.071,0,0,0,1.106-1.925c.2-.643.3-.841.49-1.495.168-.531.252-.723.431-1.311a6.647,6.647,0,0,1,.39-1.186c.182-.375-.27-.924-.386-.976a1.169,1.169,0,0,0-1.19.2c-3.747,2.621-7.668,5.163-12.024,6.528-1.03.321-1.01,1.578-1.394,2.438a48.665,48.665,0,0,0-1.384,4.909c-2.37,5.874-7.332,10.749-13.347,12.233-.8,2-4,6.624-1.6,6.013a22.656,22.656,0,0,0,15.209-13.166c1.007-2.157,1.61-4.584,2.45-6.859a41.017,41.017,0,0,0,7.522-3.652,12.194,12.194,0,0,0-1.285,3.115,12.625,12.625,0,0,0-.739,2.246c-.051.543.114.731.385.894a1.657,1.657,0,0,0,1.909-.2c4.9-3.626,9.837-7.194,14.733-10.844.5-.467,1.357-.87,1.57-1.413.1-.3.312-.989.393-1.188.121-.387.37-1.113.451-1.371.124-.38.313-.983.392-1.188.1-.268.208-.677.263-.838a.9.9,0,0,0-.62-.806Zm-41.18,4.714a.956.956,0,0,0-.132.005c-1.637.419-2.763,1.873-4.072,2.885a11.668,11.668,0,0,0-3.153,4.385c-.414,1.157-1.209,3.078.423,3.791a10.454,10.454,0,0,0,3.528-.375c1.2-.435,2.253-.712,3.062.711.728,1.282.092,2.484-.432,3.568a12.222,12.222,0,0,1-8.9,6.587,22.844,22.844,0,0,1-3.547.244,27.8,27.8,0,0,1-3.178-.128c-1.31-.055-3.076-1.044-3.333.982a39.45,39.45,0,0,1-1.088,4.414,20.219,20.219,0,0,0,4.484.643c3.628.04,7.529.008,10.7-2.112a15.2,15.2,0,0,0,5.939-7.263,73.717,73.717,0,0,0,2.606-7.752c.537-1.553.7-3.193-.539-4.452a9.119,9.119,0,0,1-1.422-4.823c-.062-.577-.309-1.288-.94-1.309Zm34.513,10.572c-.292.286-.625.52-.932.788a15.924,15.924,0,0,1-1.36.974c-.511.361-1.059.653-1.576,1-.3.2-.526.233-.766.588-.267.623-.42,1.292-.67,1.924-.226.673-.442,1.349-.695,2.011-.072.3-.233.646-.337.967-.032.3.475-.227.649-.268.382-.213.728-.492,1.119-.7,1.361-.78,2.75-1.776,2.75-1.776s.289-.718.42-1.084c.116-.461.347-.884.433-1.353.192-.378.245-.8.4-1.192.184-.423.249-.886.436-1.307.027-.173.252-.518.071-.512l.056-.056,0-.01Zm-69.177,15.433a3.946,3.946,0,0,0-1.226.556q-.988.562-2.19,1.141c-.086.04-.235.115-.332.163a1.209,1.209,0,0,1-.2.088,1.617,1.617,0,0,0-.235.1c-.177.084-.3.139-.383.168-.046.017-.182.071-.254.1s-.209.085-.255.1l-.077.034a5.2,5.2,0,0,1-.744.245c0-.012-.027,0-.059.029s-.058.04-.058.025-.062,0-.137.033-.137.051-.137.04-.022-.007-.049.01a.354.354,0,0,1-.088.04l-.293.075c-.042.012-.113.029-.156.04l-.157.04c-.043.01-.114.029-.156.04l-.167.045-.166.04-.177.04c-.1.027-.2.049-.381.083-.117.023-.253.05-.391.08-.289.063-.542.112-.8.156-.015,0-.025-.009-.04,0s-.012.009-.012.012c-.161.027-.34.047-.511.07-.01,0-.015-.005-.024,0s0,0,0,.005c-.092.012-.175.026-.274.038-.013,0-.021-.007-.034,0s0,.005-.009.007a.17.17,0,0,0-.024,0l-.264.03a.137.137,0,0,0-.1,0c-.01.005-.009.009,0,.012h0c-.081.01-.256.02-.411.031-.005,0,.006,0-.011-.005a1.444,1.444,0,0,0-.274,0c-.068.009,0,.016.143.016-.215.012-.421.02-.627.026a1.658,1.658,0,0,0-.279,0c-.033,0-.035.007-.023.009l-.272.005a.064.064,0,0,0,.023-.007c.041-.016.06-.04.048-.051s-.043,0-.07.029-.024.034-.005.029l-.248.838c-.136.461-.522,1.778-.853,2.927s-.615,2.12-.627,2.157a.162.162,0,0,0,.055.141s-.007,0-.01-.007c-.057-.059-.062-.057-.062.02,0,.047.016.085.037.085a.505.505,0,0,1,.1.068l.036.044c.07.087.1.112.1.08a.457.457,0,0,0-.081-.085.89.89,0,0,0,.139.1v.005c-.006.01.01.012.033.012s.04.023.054.027h0c.115.037.168.043.155.023a.247.247,0,0,0,.158.029c-.049.008-.009.018.088.018s.136-.007.088-.018a.527.527,0,0,0-.148,0,.619.619,0,0,1,.244.016h0a8.832,8.832,0,0,0,1.257-.007h0a1.567,1.567,0,0,0,.161.005c.16,0,.228-.007.147-.016a.9.9,0,0,0-.1,0c.167-.009.313-.018.462-.029a.278.278,0,0,0,.076.007c.075,0,.106-.009.069-.019h-.012c.109-.009.232-.018.313-.028,0,.007.009.012.037.012s.065-.007.052-.022h-.005l.228-.03c0,.005.013.009.04.01s.065-.007.051-.022h-.008c.361-.047.953-.144,1.221-.2.049-.01.128-.026.177-.035s.141-.027.205-.043.157-.035.205-.046c.221-.047.29-.061.372-.077.048-.008.132-.029.186-.043s.133-.032.176-.04c.073-.014.222-.051.313-.077l.2-.057c.086-.025.2-.056.254-.066s.137-.031.186-.043l.157-.04a1.556,1.556,0,0,0,.176-.06c.059-.024.108-.033.108-.019s.026,0,.058-.027.059-.04.059-.026.088-.01.2-.055.2-.07.2-.057.026,0,.058-.026.059-.038.059-.021.026.009.058-.02.059-.038.059-.02.026.007.058-.021.059-.038.059-.021.026.007.058-.02.059-.038.059-.021.029.005.065-.025.075-.055.088-.051a.421.421,0,0,0,.179-.049.955.955,0,0,1,.122-.04,1.72,1.72,0,0,0,.2-.08c.083-.04.192-.086.241-.107l.617-.259c.115-.049.253-.112.685-.317l.429-.2a8.811,8.811,0,0,0,1.448-.812c0-.134.89-3.451,1.538-5.731.367-1.292.365-1.2.022-1.258a.847.847,0,0,0-.241,0Z" transform="translate(3411.334 -288.428)" fill="url(#radial-gradient)"/>
    <text id="For_all_KFUPM..." data-name="For all KFUPM..." transform="translate(104.384 267.338)" fill="#8d8d8d" font-size="14" font-family="SegoeUI-SemiboldItalic, Segoe UI" font-weight="600" font-style="italic"><tspan x="-50.019" y="0">For all KFUPM...</tspan></text>
  </g>
</svg>
